# xmcd CD database file
# Generated: Mit Jun 4 15:14:11 2003 by KSCD
# 
# Track frame offsets:
#       150
#       17114
#       29977
#       49497
#       65450
#       78323
#       92156
#       107744
#       125177
#       139434
#       159878
#       176545
#       195915
#       208154
#       226892
#
# Disc length: 3235 seconds
#
# Revision: 1
# Processed by: cddbd v1.4PL0 Copyright (c) Steve Scherf et al.
# Submitted via: Kscd 1.3.3
#
DISCID=d70ca10f
DTITLE=Lift - Nach Süden
DYEAR=1900
DGENRE=
TTITLE0=Charly
TTITLE1=Skandal
TTITLE2=Regentag
TTITLE3=Sindbad
TTITLE4=Komm doch einfach mit
TTITLE5=Alptraum
TTITLE6=Roter Stein
TTITLE7=Deine Wege, meine Wege
TTITLE8=Zwei Leben
TTITLE9=Erinnerung
TTITLE10=Sommernacht
TTITLE11=Nach Süden
TTITLE12=Komm heraus
TTITLE13=Immerfort
TTITLE14=Sag mir alles
EXTD=
EXTT0=
EXTT1=
EXTT2=
EXTT3=
EXTT4=
EXTT5=
EXTT6=
EXTT7=
EXTT8=
EXTT9=
EXTT10=
EXTT11=
EXTT12=
EXTT13=
EXTT14=
PLAYORDER=
